<?xml version="1.0" encoding="utf-8"?>
<!-- Generator: Adobe Illustrator 22.1.0, SVG Export Plug-In . SVG Version: 6.00 Build 0)  -->
<svg version="1.1" id="Layer_1" xmlns="http://www.w3.org/2000/svg" xmlns:xlink="http://www.w3.org/1999/xlink" x="0px" y="0px"
	 viewBox="0 0 378.8 105.1" style="enable-background:new 0 0 378.8 105.1;" xml:space="preserve">
<style type="text/css">
	.st0{fill:#757575;}
	.st1{fill:url(#SVGID_1_);}
	.st2{fill-rule:evenodd;clip-rule:evenodd;fill:url(#SVGID_2_);}
	.st3{fill-rule:evenodd;clip-rule:evenodd;fill:url(#SVGID_3_);}
	.st4{fill-rule:evenodd;clip-rule:evenodd;fill:url(#SVGID_4_);}
	.st5{fill-rule:evenodd;clip-rule:evenodd;fill:url(#SVGID_5_);}
	.st6{fill:#2B2929;}
</style>
<g>
	<path class="st0" d="M127.1,65.7h-2.8V61h12.2c9.3,0,15.3,5.5,15.3,15s-6.1,15.1-15.3,15.1h-6.6c-2,0-2.9-0.8-2.9-2.9V65.7z
		 M133.5,86.4h2.7c6,0,9.9-3.6,9.9-10.4c0-6.7-3.9-10.3-9.9-10.3h-3.6v19.7C132.6,86,132.9,86.4,133.5,86.4z"/>
	<path class="st0" d="M167,69c6.6,0,11.9,4.7,11.9,11.3c0,6.7-5.3,11.3-11.9,11.3c-6.6,0-11.8-4.7-11.8-11.3
		C155.1,73.7,160.4,69,167,69z M167,87c3.5,0,6.4-2.7,6.4-6.7c0-4-2.9-6.7-6.4-6.7c-3.5,0-6.4,2.8-6.4,6.7
		C160.6,84.3,163.5,87,167,87z"/>
	<path class="st0" d="M193.8,69c2.8,0,7.8,1.1,7.8,4.9v2.5h-4.7v-1.2c0-1.2-1.8-1.7-3.1-1.7c-3.7,0-6.4,2.8-6.4,6.7
		c0,4.4,3.3,6.7,6.7,6.7c3.7,0,6.4-2.9,6.4-2.9l2.2,3.7c0,0-3.2,3.9-9.1,3.9c-7.1,0-11.7-5-11.7-11.3C182,74.2,186.4,69,193.8,69z"
		/>
	<path class="st0" d="M207.4,84.2c0,0,2.8,3.2,6.4,3.2c1.7,0,2.9-0.7,2.9-2.1c0-3-11.4-3-11.4-10c0-4.3,3.9-6.3,8.4-6.3
		c2.9,0,7.6,1,7.6,4.5v2.2h-4.7v-1.1c0-1-1.5-1.5-2.7-1.5c-1.9,0-3.2,0.7-3.2,1.9c0,3.4,11.5,2.7,11.5,9.9c0,4.1-3.6,6.6-8.3,6.6
		c-5.9,0-9-3.9-9-3.9L207.4,84.2z"/>
</g>
<linearGradient id="SVGID_1_" gradientUnits="userSpaceOnUse" x1="0" y1="52.5297" x2="105.0594" y2="52.5297">
	<stop  offset="0" style="stop-color:#FF00CD"/>
	<stop  offset="1" style="stop-color:#FF3D01"/>
</linearGradient>
<path class="st1" d="M105.1,77.7c0,15.1-12.3,27.4-27.4,27.4H27.4C12.3,105.1,0,92.8,0,77.7V27.4C0,12.3,12.3,0,27.4,0h50.2
	c15.1,0,27.4,12.3,27.4,27.4V77.7z"/>
<g>
	<radialGradient id="SVGID_2_" cx="68.3029" cy="52.602" r="23.5583" gradientUnits="userSpaceOnUse">
		<stop  offset="0" style="stop-color:#FFFFFF"/>
		<stop  offset="1" style="stop-color:#FBFBFB"/>
	</radialGradient>
	<path class="st2" d="M73.2,51.5c1.3-0.9,2.7-1.7,3.9-2.7c6.6-5.4,7.7-16.1,2.3-21.7c-2.8-2.9-6.4-4.2-10.3-4.3
		c-3.9-0.1-7.8-0.2-11.7-0.2c0,8.1,0,16.3,0,24.8c6.6-1.6,12.9-3.1,20.2-4.9c-8.2,13.7-16.1,26.9-24,40c3.6-0.1,7.3-0.2,10.9-0.7
		c7.7-1.2,13.5-6.5,15-13.2C81.4,60.7,79.6,56.1,73.2,51.5z"/>
	<radialGradient id="SVGID_3_" cx="36.7286" cy="52.5279" r="23.6408" gradientUnits="userSpaceOnUse">
		<stop  offset="0" style="stop-color:#FFFFFF"/>
		<stop  offset="1" style="stop-color:#FBFBFB"/>
	</radialGradient>
	<path class="st3" d="M27.4,62.5c8.2-13.7,16.1-26.9,23.9-39.9c-4.9-0.1-9.9-0.1-14.8-0.1c-3.9,0-4.6,0.7-5.2,4.6
		c-0.8,5.2-1.8,10.4-2.7,15.6c-2.1,11.8-4.2,23.6-6.2,35.4c-0.6,3.6,0.2,4.5,3.9,4.5c7.2,0,14.3,0.1,21.5,0c0-8.2,0-16.4,0-25
		C40.9,59.2,34.7,60.7,27.4,62.5z"/>
	<radialGradient id="SVGID_4_" cx="54.4026" cy="18.2488" r="3.8104" gradientUnits="userSpaceOnUse">
		<stop  offset="0" style="stop-color:#FFFFFF"/>
		<stop  offset="1" style="stop-color:#FBFBFB"/>
	</radialGradient>
	<path class="st4" d="M57.5,14.1c-0.3-0.1-0.7-0.2-1-0.3c-1.7,2.9-3.5,5.8-5.2,8.7c2.1,0,4.1,0.1,6.2,0.1
		C57.5,19.8,57.5,17,57.5,14.1z"/>
	<radialGradient id="SVGID_5_" cx="50.7134" cy="86.8829" r="3.7232" gradientUnits="userSpaceOnUse">
		<stop  offset="0" style="stop-color:#FFFFFF"/>
		<stop  offset="1" style="stop-color:#FBFBFB"/>
	</radialGradient>
	<path class="st5" d="M47.7,82.6c0,2.8,0,5.6,0,8.5c0.3,0.1,0.5,0.1,0.8,0.2c1.7-2.9,3.5-5.8,5.2-8.7c-0.5,0-0.9,0-1.4,0
		C50.8,82.6,49.3,82.6,47.7,82.6z"/>
</g>
<g>
	<path class="st6" d="M147,34.1c2.1-1.6,3.4-4.2,3.4-7.1c0-3.7-1.9-6.8-5-8.2c-1.6-0.8-3.4-1.1-6.2-1.1h-15.9v5.2h4.2v24.5h-4.2v5.2
		h16.5c1.9,0,3.6-0.1,5.2-0.7c4-1.4,6.6-5.1,6.6-9.6C151.7,38.5,149.9,35.5,147,34.1z M140,47.2h-6.3v-10h6.7c3.1,0,5,1.9,5,4.9
		c0,2.2-1,4-2.7,4.7C142,47,141.1,47.2,140,47.2z M139.9,31.7h-6.2v-8.6h5.5c1.3,0,2.3,0.2,3.1,0.6c1.1,0.6,1.8,2,1.8,3.7
		C144.1,30.1,142.5,31.7,139.9,31.7z"/>
	<path class="st6" d="M163.8,47.4c-1.2,0-1.8-0.4-1.8-2.6v-27H152v5.1h4V45c0,5.1,2.4,7.7,7.1,7.7c1.1,0,2.1-0.1,2.1-0.1l0.7-0.1
		l0.1-5.3l-0.8,0.1C165,47.3,164.5,47.4,163.8,47.4z"/>
	<polygon class="st6" points="176.9,27.2 166.8,27.2 166.8,32.2 170.8,32.2 170.8,47.5 167.1,47.5 167.1,52.6 180.7,52.6 
		180.7,47.5 176.9,47.5 	"/>
	<rect x="170.7" y="17.7" class="st6" width="6.3" height="6.2"/>
	<path class="st6" d="M208.8,36.5c0-6.6-2.9-9.9-8.7-9.9c-4.1,0-6.9,2-8.5,3.9c0-1.3-0.6-3.3-3.8-3.3h-6.1v5.1h3.7
		c0.2,0,0.2,0,0.2,0c0,0,0,0.1,0,0.2v15H182v5.1h13.6v-5.1h-3.8v-6.8c0-4.1,2.7-8.4,7.2-8.4c2.7,0,3.7,1.4,3.7,5.2v15h9.9v-5.1h-3.8
		V36.5z"/>
	<path class="st6" d="M235.2,46.9l-4.1-6.9c-0.5-0.8-0.9-1.3-1.3-1.7l5.2-6h3.6v-5.1h-12.4v5.1h2.2l-3.5,4.1h-2.4V17.7h-10.1v5.1h4
		v24.7h-3.8v5.1h13v-5.1h-3.2v-6.2h1.1c1,0,1.3,0.1,1.6,0.6L230,50c1.2,2.1,2.1,2.6,4.6,2.6h4.3v-5.1h-2.3
		C235.6,47.5,235.5,47.4,235.2,46.9z"/>
	<path class="st6" d="M249.6,47.4c-1.2,0-1.8-0.4-1.8-2.6v-27h-10.1v5.1h4V45c0,5.1,2.4,7.7,7.1,7.7c1.1,0,2.1-0.1,2.1-0.1l0.7-0.1
		l0.1-5.3l-0.8,0.1C250.8,47.3,250.3,47.4,249.6,47.4z"/>
	<path class="st6" d="M265.9,26.6c-7.8,0-13.6,5.7-13.6,13.2c0,7.5,6,13.3,13.6,13.3c7.6,0,13.6-5.8,13.6-13.3
		C279.5,32.3,273.7,26.6,265.9,26.6z M265.9,47.6c-4.2,0-7.4-3.4-7.4-7.8c0-4.4,3.2-7.7,7.4-7.7c4.2,0,7.4,3.3,7.4,7.7
		C273.3,44.3,270.1,47.6,265.9,47.6z"/>
	<path class="st6" d="M302.1,47.5c0,0,0-0.1,0-0.2V36.6c0-6.4-3.6-10-10.1-10c-5.8,0-9.4,2.9-9.5,3l-0.5,0.4l2.6,4.6l0.7-0.5
		c0,0,2.9-2.2,6.4-2.2c3,0,4.3,1.4,4.3,4.3v0.1h-0.7c-9.5,0-14.7,3.1-14.7,8.8c0,5.5,4.5,8,8.7,8c3.5,0,5.8-1.7,7.1-3.2
		c0.3,1.7,1.6,2.6,3.7,2.6h5.5v-5.1h-3.2C302.1,47.5,302.1,47.5,302.1,47.5z M296,40.9v0.2c0,3.4-2.3,7-5.8,7
		c-2.4,0-3.5-1.7-3.5-3.3c0-3.2,4.8-3.9,8.9-3.9H296z"/>
	<path class="st6" d="M330.5,47.5c0,0,0-0.1,0-0.2V17.7h-10.1v5.1h4v6.3c-1.2-1.2-3.3-2.5-6.6-2.5c-6.9,0-11.6,5.3-11.6,13.3
		c0,7.9,4.5,13.3,11.2,13.3c3.7,0,6-1.6,7.3-3.1c0.3,1.6,1.6,2.5,3.7,2.5h5.5v-5.1h-3.2C330.5,47.5,330.5,47.5,330.5,47.5z
		 M324.5,39.9c0,5.7-3.2,7.7-6.1,7.7c-3.6,0-6-3.1-6-7.8c0-4.6,2.5-7.7,6.1-7.7C322.6,32.1,324.5,36,324.5,39.9z"/>
	<path class="st6" d="M358.5,40.4c0,0,0.1-1.2,0.1-1.8c0-7.1-4.5-11.9-11.1-11.9c-7.5,0-12.7,5.5-12.7,13.3
		c0,7.7,5.6,13.3,13.4,13.3c5.9,0,9.7-3.4,9.8-3.5l0.4-0.4l-2.6-4.7l-0.7,0.6c0,0-2.8,2.5-6.6,2.5c-3.3,0-6.8-2-7.4-6.6h17.3
		L358.5,40.4z M347.4,31.8c2.7,0,4.5,1.9,4.9,4.8h-10.9C342.2,33.6,344.5,31.8,347.4,31.8z"/>
	<path class="st6" d="M378.1,27c0,0-0.6-0.1-1.3-0.1c-2.7,0-5.2,1.4-6.8,3.7c0-1.6-0.7-3.4-3.8-3.4h-6.1v5.1h3.7c0.2,0,0.2,0,0.2,0
		c0,0,0,0.1,0,0.2v15h-3.6v5.1h13.2v-5.1h-3.5v-5.6c0-4.5,2-9,6.5-9c0.6,0,1.1,0.1,1.1,0.1l0.9,0.2v-6.1L378.1,27z"/>
</g>
</svg>
